<svg xmlns="http://www.w3.org/2000/svg" id="outline" viewBox="0 0 512 512" width="512" height="512"><circle cx="168" cy="200" r="8"></circle><circle cx="200" cy="200" r="8"></circle><path d="M167.15527,220.42236l-14.31054,7.15528A36.74208,36.74208,0,0,0,185.88867,248H200V232H185.88867A20.831,20.831,0,0,1,167.15527,220.42236Z"></path><path d="M472,328H320a7.99079,7.99079,0,0,0-2.28552.33667l-43.45764-54.322A48.14388,48.14388,0,0,0,263.31311,264H264V184a88,88,0,0,0-176,0v72H79.2666A63.33835,63.33835,0,0,0,16,319.2666c0,.245.01062.48877.01343.7334H16v13.09717A133.93571,133.93571,0,0,0,27.61572,387.8335,118.08644,118.08644,0,0,1,30.29,477.7749l-5.78076,15.416,14.98144,5.61816,5.78076-15.416A133.99927,133.99927,0,0,0,42.23682,381.335q-1.9391-4.363-3.51209-8.82617l49.119,73.6792A39.92,39.92,0,0,0,121.126,464H128a32.036,32.036,0,0,0,32,32H408a8.00021,8.00021,0,0,0,7.373-4.89551l64-152A8,8,0,0,0,472,328ZM104,184a72,72,0,0,1,144,0v73.32617A48.32166,48.32166,0,0,0,236.7749,256H223.82251a51.63624,51.63624,0,0,0,8.17847-28.00146L232,168a7.99977,7.99977,0,0,0-8-8H193.29834a27.065,27.065,0,0,1-25.709-18.52979A8,8,0,0,0,152,144v6.70166a27.06439,27.06439,0,0,1-18.52979,25.709A8.00011,8.00011,0,0,0,128,184v72H104Zm16,88h8a7.99958,7.99958,0,0,0,1.0542,3.96924L135.929,288H120Zm48,39.87549-24-42v-4.406A51.80687,51.80687,0,0,0,180.00049,280a52.80218,52.80218,0,0,0,6.44775-.40894Zm37.457-58.41992A36.00064,36.00064,0,0,1,144,227.99951V189.34229a43.037,43.037,0,0,0,21.31787-23.64307A43.035,43.035,0,0,0,193.29834,176H216l.001,51.99854A35.76688,35.76688,0,0,1,205.457,253.45557Zm-56.661,57.06189L160,330.12439v20.912l-21.55127-30.17163ZM176,330.12439l11.204-19.60693,10.34729,10.34729L176,351.03638Zm30.9458-54.15515A7.99958,7.99958,0,0,0,208,272h8v16H200.071ZM121.126,448a23.95187,23.95187,0,0,1-19.96924-10.687L39.93848,345.48486A47.26611,47.26611,0,0,1,79.2666,272H104v24a7.99977,7.99977,0,0,0,8,8h20.68652l-10.34326,10.34326a7.99958,7.99958,0,0,0-.853,10.30664l40,56a7.9998,7.9998,0,0,0,13.01954,0l40-56a7.99958,7.99958,0,0,0-.853-10.30664L203.31348,304H224a7.99977,7.99977,0,0,0,8-8V272h4.7749a31.84248,31.84248,0,0,1,24.9878,12.00977L308.57324,342.523,289.08569,388.806l-33.62036-40.34436a46.80512,46.80512,0,0,0-1.7041-15.53L249.439,317.80225l-15.38476,4.3955,4.32226,15.1294a30.8836,30.8836,0,0,1-23.88232,38.81592A7.99954,7.99954,0,0,0,208,384v7.56714L206.70166,392H140.165L86.55371,315.41211l-13.10742,9.17578,56,80A8.001,8.001,0,0,0,136,408h56v40Zm143.03589,0H243.31348l16-16h11.5852Zm13.47363-32H256a7.99877,7.99877,0,0,0-5.65674,2.34326L220.68652,448H208V408a7.99908,7.99908,0,0,0,2.52979-.41064l35.42529-11.8086a23.84631,23.84631,0,0,1,18.32275,1.30225l17.6145,8.80725Zm-29.0232-45.62012c.61915-1.00634,1.18335-2.03906,1.7212-3.083l9.82031,11.78454a39.79388,39.79388,0,0,0-19.2583,1.52063l-1.28321.42774A46.7858,46.7858,0,0,0,248.6123,370.37988ZM144,464H257.42505l-6.73682,16H160A16.01833,16.01833,0,0,1,144,464Zm258.688,16H268.04883L325.312,344H459.95117Z"></path><path d="M368,432a24,24,0,1,0-24-24A24.02687,24.02687,0,0,0,368,432Zm0-32a8,8,0,1,1-8,8A8.00917,8.00917,0,0,1,368,400Z"></path><path d="M488,184H304a7.99977,7.99977,0,0,0-8,8v96a7.99977,7.99977,0,0,0,8,8H488a7.99977,7.99977,0,0,0,8-8V192A7.99977,7.99977,0,0,0,488,184Zm-8,96H312V200H480Z"></path><path d="M248,32H440V152H280v16H448a7.99977,7.99977,0,0,0,8-8V24a7.99977,7.99977,0,0,0-8-8H240a7.99977,7.99977,0,0,0-8,8v80h16Z"></path><path d="M440,264a24,24,0,1,0-24-24A24.02687,24.02687,0,0,0,440,264Zm0-32a8,8,0,1,1-8,8A8.00917,8.00917,0,0,1,440,232Z"></path><path d="M312,72a24,24,0,1,0-24,24A24.02687,24.02687,0,0,0,312,72Zm-32,0a8,8,0,1,1,8,8A8.00917,8.00917,0,0,1,280,72Z"></path><rect x="328" y="216" width="40" height="16"></rect><rect x="384" y="216" width="24" height="16"></rect><rect x="352" y="248" width="56" height="16"></rect><rect x="328" y="56" width="16" height="16"></rect><rect x="360" y="56" width="64" height="16"></rect><rect x="328" y="88" width="64" height="16"></rect><rect x="328" y="120" width="32" height="16"></rect><rect x="376" y="120" width="40" height="16"></rect></svg>