<svg xmlns="http://www.w3.org/2000/svg" id="_x33_0" height="512" viewBox="0 0 64 64" width="512"><path d="m61 29c-1.538 0-2.937.586-4 1.54v-8.54c0-1.654-1.346-3-3-3-.395 0-.771.081-1.117.221-.21-.765-.712-1.417-1.395-1.81.324-1.19.511-2.428.511-3.7 0-2.615-.733-5.17-2.119-7.388-2.082-3.333-5.672-5.323-9.603-5.323-2.981 0-5.901 1.21-8.01 3.319l-.267.267-.267-.267c-2.109-2.109-5.028-3.319-8.01-3.319-3.931 0-7.521 1.99-9.604 5.323-1.386 2.218-2.119 4.773-2.119 7.406 0 1.265.187 2.497.51 3.682-.682.393-1.183 1.044-1.393 1.809-.346-.139-.722-.22-1.117-.22-1.654 0-3 1.346-3 3v8.54c-1.063-.954-2.462-1.54-4-1.54-1.103 0-2 .897-2 2l.006.11c.006.062.682 6.181.915 11.604.104 2.415 1.005 4.76 2.54 6.602l2.539 3.046v10.638h16v-10.768c1.309-2.699 2-5.704 2-8.705v-12.779l7 5.526 7-5.526v12.779c0 3.001.691 6.006 2 8.705v10.768h16v-10.638l2.54-3.048c1.534-1.842 2.435-4.186 2.539-6.601.233-5.423.909-11.542.915-11.604l.006-.109c0-1.103-.897-2-2-2zm-45.185-21.616c1.715-2.745 4.671-4.384 7.908-4.384 2.455 0 4.859.996 6.596 2.733l1.681 1.681 1.681-1.681c1.737-1.737 4.141-2.733 6.596-2.733 3.237 0 6.193 1.639 7.908 4.384 1.188 1.898 1.815 4.087 1.815 6.345 0 3.677-1.655 7.093-4.541 9.371l-3.885 3.067c-.038-.038-.074-.074-.112-.113-1.304-1.305-3.11-2.054-4.955-2.054h-.787l-.419-1.258c.549-.481 1.002-1.066 1.295-1.742h.535c1.582 0 2.869-1.346 2.869-3 0-.6-.173-1.157-.464-1.626l.43-1.603c.082-.326.123-.663.123-1.001 0-1.73-1.092-3.29-2.719-3.882l-4.238-1.541c-.632-.23-1.296-.347-1.971-.347-1.805 0-3.53.862-4.612 2.307l-.241.32c-1.362.253-2.396 1.45-2.396 2.884 0 1.015.328 2.225.536 2.896-.28.463-.448 1.006-.448 1.593 0 1.654 1.287 3 2.868 3h.535c.293.676.746 1.261 1.295 1.742l-.419 1.258h-.787c-1.844 0-3.65.749-4.955 2.056-.039.039-.074.074-.112.112l-3.885-3.067c-2.885-2.279-4.54-5.695-4.54-9.39 0-2.24.627-4.429 1.815-6.327zm11.053 11.616c-.479 0-.868-.448-.868-1s.389-1 .868-1h.142c-.002.051-.01.102-.01.153v1.847zm.655-4h-.655c-.247 0-.482.043-.71.104-.132-.526-.246-1.12-.246-1.594 0-.515.418-.933.933-.933h.5l.804-1.072c.971-1.295 2.78-1.832 4.299-1.279l4.239 1.541c.839.306 1.402 1.11 1.402 2.003 0 .174-.021.348-.059.5l-.221.823c-.218-.055-.443-.093-.677-.093h-.132-1c-2.547 0-5.75-1.846-5.782-1.864l-.535-.311-.517.339c-.714.468-1.271 1.105-1.643 1.836zm9.477 2h.132c.479 0 .868.448.868 1s-.389 1-.868 1h-.132zm-8 .153c0-.742.299-1.442.821-1.959 1.007.518 3.103 1.482 5.179 1.74v2.128c0 1.621-1.346 2.938-3 2.938s-3-1.317-3-2.938zm1.474 6.587c.484.155.991.26 1.526.26s1.042-.105 1.526-.26l.341 1.024-1.867 2.074-1.867-2.074zm-21.474 37.26v-4h12v4zm14-17.473c0 2.771-.655 5.547-1.895 8.025l-.105.212v3.236h-12v-3.362l-3.002-3.603c-1.255-1.507-1.993-3.427-2.078-5.407-.219-5.088-.821-10.77-.914-11.628 2.203.003 3.994 1.797 3.994 4v5 .5l1.87 1.402c1.492 1.119 2.592 2.645 3.181 4.414l1.897-.633c-.719-2.156-2.06-4.018-3.878-5.381l-1.07-.802v-4.5-13c0-.552.449-1 1-1s1 .448 1 1v14h2v-16c0-.225.085-.43.216-.599.47 1.056 1.06 2.056 1.784 2.968v13.631h2v-11.596c.103.087.195.183.302.267l1.698 1.341v9.988h2v-8.41l2 1.579zm1.013-16.107c.927-.9 2.188-1.42 3.48-1.42h1.062l3.445 3.828 3.445-3.828h1.062c1.292 0 2.553.52 3.48 1.42l-7.987 6.306zm18.987 33.58v-4h12v4zm17.081-18.372c-.085 1.979-.823 3.9-2.077 5.406l-3.004 3.604v3.362h-12v-3.236l-.105-.211c-1.24-2.479-1.895-5.254-1.895-8.026v-14.358l2-1.579v8.41h2v-9.988l1.698-1.341c.106-.084.198-.181.302-.267v11.596h2v-13.631c.723-.913 1.313-1.913 1.783-2.969.132.168.217.374.217.6v16h2v-14c0-.552.449-1 1-1s1 .448 1 1v13 4.5l-1.07.803c-1.818 1.363-3.159 3.224-3.878 5.381l1.897.633c.59-1.77 1.69-3.296 3.181-4.414l1.87-1.403v-.5-5c0-2.203 1.791-3.997 3.994-4-.093.858-.695 6.54-.913 11.628z"></path></svg>