<svg xmlns="http://www.w3.org/2000/svg" id="Capa_1" height="512" viewBox="0 0 512 512" width="512"><g><path d="m511.536 109.222c0-60.225-48.997-109.222-109.222-109.222s-109.222 48.997-109.222 109.222c0 1.692.044 3.374.121 5.047h-205.799l-10.424-112.832h-76.526v29.949h49.216l27.847 301.426-14.025 13.018c-16.747 15.545-22.174 39.333-13.824 60.602s28.509 35.013 51.359 35.013h27.85c-2.762 6.218-4.31 13.09-4.31 20.321 0 27.7 22.535 50.236 50.235 50.236s50.235-22.536 50.235-50.236c0-7.231-1.548-14.103-4.31-20.321h28.969c-2.762 6.218-4.31 13.09-4.31 20.321 0 27.7 22.535 50.236 50.235 50.236s50.236-22.536 50.236-50.236-22.536-50.235-50.236-50.235l-194.596-.035c-10.768 0-19.546-5.984-23.481-16.008-3.935-10.023-1.573-20.381 6.32-27.707l15.119-14.032h211.959c37.45 0 70.006-26.645 77.412-63.355l14.516-71.956c59.966-.309 108.656-49.181 108.656-109.216zm-336.723 372.829c-11.186 0-20.286-9.101-20.286-20.287s9.1-20.286 20.286-20.286 20.286 9.1 20.286 20.286-9.1 20.287-20.286 20.287zm141.107-20.287c0 11.186-9.101 20.287-20.287 20.287s-20.286-9.101-20.286-20.287 9.1-20.286 20.286-20.286 20.287 9.1 20.287 20.286zm-17.078-317.546c5.773 17.023 15.639 32.172 28.417 44.276h-232.988l-4.09-44.276zm60.166 140.252c-4.597 22.789-24.807 39.329-48.055 39.329h-204.182l-9.733-105.355h275.289zm43.306-95.976c-43.711 0-79.273-35.562-79.273-79.272 0-43.711 35.562-79.273 79.273-79.273s79.272 35.562 79.272 79.273c.001 43.711-35.561 79.272-79.272 79.272z"></path><path d="m376.773 89.646h14.895v63.273h29.949v-93.222h-44.844z"></path></g></svg>